<?xml version="1.0" encoding="UTF-8"?>
<!-- Generated by Pixelmator Pro 3.6.7 -->
<svg width="512" height="512" viewBox="0 0 512 512" xmlns="http://www.w3.org/2000/svg" xmlns:xlink="http://www.w3.org/1999/xlink">
    <path id="Gray-Background" fill="#1a1b2e" fill-rule="evenodd" stroke="none" d="M -14 526 L 526 526 L 526 -14 L -14 -14 Z"/>
    <g id="Group">
        <path id="Rectangle" fill="#2e4df5" stroke="none" d="M 28.1875 1.820313 C 13.625332 1.820313 1.820313 13.625336 1.820313 28.1875 L 1.820313 483.8125 C 1.820313 498.374695 13.625332 510.179688 28.1875 510.179688 L 483.8125 510.179688 C 498.374695 510.179688 510.179688 498.374695 510.179688 483.8125 L 510.179688 28.1875 C 510.179688 13.625336 498.374695 1.820313 483.8125 1.820313 L 28.1875 1.820313 Z M 28.1875 28.1875 L 483.8125 28.1875 L 483.8125 483.8125 L 28.1875 483.8125 L 28.1875 28.1875 Z"/>
        <path id="DG-" fill="#2040f4" fill-rule="evenodd" stroke="none" d="M 389.561249 360.848572 C 378.36673 368.293335 364.603241 372.015625 348.270294 372.015625 C 321.385162 372.015625 299.363495 361.940552 282.204742 341.7901 C 264.31192 321.540466 255.365616 293.846436 255.365616 258.707214 C 255.365616 223.170959 264.403656 194.682861 282.480011 173.242004 C 300.556366 151.801178 324.459015 141.080872 354.18866 141.080872 C 379.972687 141.080872 400.686798 148.15329 416.331573 162.298279 C 431.976318 176.443268 440.945557 194.087067 443.239502 215.230103 L 401.535645 215.230103 C 398.324097 200.241394 390.478882 189.769287 377.999786 183.813477 C 371.026154 180.537811 363.272705 178.899994 354.739197 178.899994 C 338.40625 178.899994 324.986816 185.575348 314.480499 198.926239 C 303.974182 212.27713 298.72113 232.352814 298.72113 259.15387 C 298.72113 286.153503 304.410065 305.261353 315.788055 316.478119 C 327.166077 327.694885 340.10379 333.303162 354.601563 333.303162 C 368.824066 333.303162 380.477173 328.861176 389.561249 319.977142 C 398.645294 311.093079 404.242462 299.454651 406.352905 285.061462 L 359.418854 285.061462 L 359.418854 248.433533 L 443.927673 248.433533 L 443.927673 366.20874 L 415.849823 366.20874 L 411.583099 338.812256 C 403.416626 349.234863 396.07608 356.580261 389.561249 360.848572 Z M 154.610153 366.20874 L 67.210938 366.20874 L 67.210938 146.738831 L 154.610153 146.738831 C 167.181 146.937408 177.641281 148.525574 185.991287 151.503448 C 200.213791 156.565887 211.729263 165.846863 220.538055 179.34668 C 227.603439 190.265625 232.420654 202.077789 234.989899 214.783447 C 237.559128 227.489166 238.843719 239.59906 238.843719 251.113617 C 238.843719 280.296997 233.430069 305.013184 222.6026 325.262878 C 207.921295 352.560303 185.25737 366.20874 154.610153 366.20874 Z M 186.128922 202.723022 C 179.61409 190.811432 166.72226 184.855743 147.453049 184.855743 L 108.364273 184.855743 L 108.364273 328.091858 L 147.453049 328.091858 C 167.456329 328.091858 181.403351 317.421204 189.294556 296.07962 C 193.607193 284.366577 195.763474 270.420319 195.763474 254.240387 C 195.763474 231.906189 192.551987 214.733856 186.128922 202.723022 Z"/>
    </g>
    <mask id="mask1" maskUnits="userSpaceOnUse" maskContentUnits="userSpaceOnUse" mask-type="alpha">
        <g id="g1">
            <path id="path1" fill="#2e4df5" stroke="none" d="M 28.1875 1.820313 C 13.625332 1.820313 1.820313 13.625336 1.820313 28.1875 L 1.820313 483.8125 C 1.820313 498.374695 13.625332 510.179688 28.1875 510.179688 L 483.8125 510.179688 C 498.374695 510.179688 510.179688 498.374695 510.179688 483.8125 L 510.179688 28.1875 C 510.179688 13.625336 498.374695 1.820313 483.8125 1.820313 L 28.1875 1.820313 Z M 28.1875 28.1875 L 483.8125 28.1875 L 483.8125 483.8125 L 28.1875 483.8125 L 28.1875 28.1875 Z"/>
            <path id="path2" fill="#2040f4" fill-rule="evenodd" stroke="none" d="M 389.561249 360.848572 C 378.36673 368.293335 364.603241 372.015625 348.270294 372.015625 C 321.385162 372.015625 299.363495 361.940552 282.204742 341.7901 C 264.31192 321.540466 255.365616 293.846436 255.365616 258.707214 C 255.365616 223.170959 264.403656 194.682861 282.480011 173.242004 C 300.556366 151.801178 324.459015 141.080872 354.18866 141.080872 C 379.972687 141.080872 400.686798 148.15329 416.331573 162.298279 C 431.976318 176.443268 440.945557 194.087067 443.239502 215.230103 L 401.535645 215.230103 C 398.324097 200.241394 390.478882 189.769287 377.999786 183.813477 C 371.026154 180.537811 363.272705 178.899994 354.739197 178.899994 C 338.40625 178.899994 324.986816 185.575348 314.480499 198.926239 C 303.974182 212.27713 298.72113 232.352814 298.72113 259.15387 C 298.72113 286.153503 304.410065 305.261353 315.788055 316.478119 C 327.166077 327.694885 340.10379 333.303162 354.601563 333.303162 C 368.824066 333.303162 380.477173 328.861176 389.561249 319.977142 C 398.645294 311.093079 404.242462 299.454651 406.352905 285.061462 L 359.418854 285.061462 L 359.418854 248.433533 L 443.927673 248.433533 L 443.927673 366.20874 L 415.849823 366.20874 L 411.583099 338.812256 C 403.416626 349.234863 396.07608 356.580261 389.561249 360.848572 Z M 154.610153 366.20874 L 67.210938 366.20874 L 67.210938 146.738831 L 154.610153 146.738831 C 167.181 146.937408 177.641281 148.525574 185.991287 151.503448 C 200.213791 156.565887 211.729263 165.846863 220.538055 179.34668 C 227.603439 190.265625 232.420654 202.077789 234.989899 214.783447 C 237.559128 227.489166 238.843719 239.59906 238.843719 251.113617 C 238.843719 280.296997 233.430069 305.013184 222.6026 325.262878 C 207.921295 352.560303 185.25737 366.20874 154.610153 366.20874 Z M 186.128922 202.723022 C 179.61409 190.811432 166.72226 184.855743 147.453049 184.855743 L 108.364273 184.855743 L 108.364273 328.091858 L 147.453049 328.091858 C 167.456329 328.091858 181.403351 317.421204 189.294556 296.07962 C 193.607193 284.366577 195.763474 270.420319 195.763474 254.240387 C 195.763474 231.906189 192.551987 214.733856 186.128922 202.723022 Z"/>
        </g>
    </mask>
    <g id="g2" mask="url(#mask1)">
        <linearGradient id="linearGradient1" x1="93.750621" y1="442.702612" x2="388.610901" y2="127.099507" gradientUnits="userSpaceOnUse">
            <stop offset="1e-05" stop-color="#2323ff" stop-opacity="1"/>
            <stop offset="1" stop-color="#3babff" stop-opacity="1"/>
        </linearGradient>
        <path id="Rectangle-copy-5" fill="url(#linearGradient1)" fill-rule="evenodd" stroke="none" d="M -14 526 L 526 526 L 526 -14 L -14 -14 Z"/>
        <linearGradient id="linearGradient2" x1="93.750621" y1="442.702612" x2="388.610901" y2="127.099507" gradientUnits="userSpaceOnUse">
            <stop offset="1e-05" stop-color="#3babff" stop-opacity="1"/>
            <stop offset="1" stop-color="#3babff" stop-opacity="1"/>
        </linearGradient>
        <path id="Rectangle-copy-7" fill="url(#linearGradient2)" fill-rule="evenodd" stroke="none" d="M -14 526 L 526 526 L 526 -14 L -14 -14 Z"/>
    </g>
</svg>
