<?xml version="1.0" encoding="UTF-8"?>
<!-- Generated by Pixelmator Pro 3.6.7 -->
<svg width="512" height="512" viewBox="0 0 512 512" xmlns="http://www.w3.org/2000/svg" xmlns:xlink="http://www.w3.org/1999/xlink">
    <path id="Gray-Background" fill="#1a1b2e" fill-rule="evenodd" stroke="none" d="M 0 512 L 512 512 L 512 0 L 0 0 Z"/>
    <g id="Group">
        <path id="Rectangle" fill="#2e4df5" stroke="none" d="M 40 15 C 26.192907 15 15 26.192902 15 40 L 15 472 C 15 485.807129 26.192907 497 40 497 L 472 497 C 485.807129 497 497 485.807129 497 472 L 497 40 C 497 26.192902 485.807129 15 472 15 L 40 15 Z M 40 40 L 472 40 L 472 472 L 40 472 L 40 40 Z"/>
        <path id="DG-" fill="#2040f4" fill-rule="evenodd" stroke="none" d="M 382.635864 355.411987 C 372.02179 362.470703 358.971954 366 343.485901 366 C 317.994812 366 297.115021 356.447327 280.845978 337.341736 C 263.88092 318.142059 255.398514 291.884033 255.398514 258.566864 C 255.398514 224.873199 263.967896 197.862274 281.106964 177.533173 C 298.246033 157.204071 320.909271 147.039642 349.097382 147.039642 C 373.544495 147.039642 393.184509 153.745331 408.018066 167.156891 C 422.851624 180.568451 431.355774 197.297363 433.530792 217.344116 L 393.989349 217.344116 C 390.944336 203.132568 383.50589 193.203461 371.673859 187.556488 C 365.061829 184.450653 357.710419 182.897766 349.619385 182.897766 C 334.133331 182.897766 321.409729 189.22699 311.448181 201.88562 C 301.486633 214.54425 296.505951 233.578979 296.505951 258.990356 C 296.505951 284.589966 301.899902 302.707062 312.687927 313.342224 C 323.475983 323.977386 335.742828 329.294861 349.488892 329.294861 C 362.973938 329.294861 374.022797 325.083191 382.635864 316.65979 C 391.248871 308.23642 396.555817 297.201416 398.556824 283.554565 L 354.056396 283.554565 L 354.056396 248.825867 L 434.183289 248.825867 L 434.183289 360.494202 L 407.56131 360.494202 L 403.515839 334.518311 C 395.772797 344.400452 388.812897 351.36499 382.635864 355.411987 Z M 159.867401 360.494202 L 77 360.494202 L 77 152.404236 L 159.867401 152.404236 C 171.786438 152.592499 181.70433 154.098328 189.621368 156.921783 C 203.106415 161.721741 214.024796 170.521484 222.376816 183.321289 C 229.075851 193.674072 233.643295 204.873749 236.0793 216.920593 C 238.51532 228.967499 239.733307 240.449493 239.733307 251.366974 C 239.733307 279.03717 234.600357 302.471741 224.33432 321.671448 C 210.414261 347.553467 188.925507 360.494202 159.867401 360.494202 Z M 189.751862 205.485535 C 183.574844 194.191589 171.351471 188.544708 153.081406 188.544708 L 116.019455 188.544708 L 116.019455 324.35376 L 153.081406 324.35376 C 172.047485 324.35376 185.271332 314.23642 192.753357 294.001404 C 196.842377 282.895721 198.886856 269.672607 198.886856 254.331635 C 198.886856 233.155487 195.841888 216.873596 189.751862 205.485535 Z"/>
    </g>
    <mask id="mask1" maskUnits="userSpaceOnUse" maskContentUnits="userSpaceOnUse" mask-type="alpha">
        <g id="g1">
            <path id="path1" fill="#2e4df5" stroke="none" d="M 40 15 C 26.192907 15 15 26.192902 15 40 L 15 472 C 15 485.807129 26.192907 497 40 497 L 472 497 C 485.807129 497 497 485.807129 497 472 L 497 40 C 497 26.192902 485.807129 15 472 15 L 40 15 Z M 40 40 L 472 40 L 472 472 L 40 472 L 40 40 Z"/>
            <path id="path2" fill="#2040f4" fill-rule="evenodd" stroke="none" d="M 382.635864 355.411987 C 372.02179 362.470703 358.971954 366 343.485901 366 C 317.994812 366 297.115021 356.447327 280.845978 337.341736 C 263.88092 318.142059 255.398514 291.884033 255.398514 258.566864 C 255.398514 224.873199 263.967896 197.862274 281.106964 177.533173 C 298.246033 157.204071 320.909271 147.039642 349.097382 147.039642 C 373.544495 147.039642 393.184509 153.745331 408.018066 167.156891 C 422.851624 180.568451 431.355774 197.297363 433.530792 217.344116 L 393.989349 217.344116 C 390.944336 203.132568 383.50589 193.203461 371.673859 187.556488 C 365.061829 184.450653 357.710419 182.897766 349.619385 182.897766 C 334.133331 182.897766 321.409729 189.22699 311.448181 201.88562 C 301.486633 214.54425 296.505951 233.578979 296.505951 258.990356 C 296.505951 284.589966 301.899902 302.707062 312.687927 313.342224 C 323.475983 323.977386 335.742828 329.294861 349.488892 329.294861 C 362.973938 329.294861 374.022797 325.083191 382.635864 316.65979 C 391.248871 308.23642 396.555817 297.201416 398.556824 283.554565 L 354.056396 283.554565 L 354.056396 248.825867 L 434.183289 248.825867 L 434.183289 360.494202 L 407.56131 360.494202 L 403.515839 334.518311 C 395.772797 344.400452 388.812897 351.36499 382.635864 355.411987 Z M 159.867401 360.494202 L 77 360.494202 L 77 152.404236 L 159.867401 152.404236 C 171.786438 152.592499 181.70433 154.098328 189.621368 156.921783 C 203.106415 161.721741 214.024796 170.521484 222.376816 183.321289 C 229.075851 193.674072 233.643295 204.873749 236.0793 216.920593 C 238.51532 228.967499 239.733307 240.449493 239.733307 251.366974 C 239.733307 279.03717 234.600357 302.471741 224.33432 321.671448 C 210.414261 347.553467 188.925507 360.494202 159.867401 360.494202 Z M 189.751862 205.485535 C 183.574844 194.191589 171.351471 188.544708 153.081406 188.544708 L 116.019455 188.544708 L 116.019455 324.35376 L 153.081406 324.35376 C 172.047485 324.35376 185.271332 314.23642 192.753357 294.001404 C 196.842377 282.895721 198.886856 269.672607 198.886856 254.331635 C 198.886856 233.155487 195.841888 216.873596 189.751862 205.485535 Z"/>
        </g>
    </mask>
    <g id="g2" mask="url(#mask1)">
        <linearGradient id="linearGradient1" x1="102.163552" y1="433.021736" x2="381.73478" y2="133.783236" gradientUnits="userSpaceOnUse">
            <stop offset="1e-05" stop-color="#2323ff" stop-opacity="1"/>
            <stop offset="1" stop-color="#3babff" stop-opacity="1"/>
        </linearGradient>
        <path id="Rectangle-copy-5" fill="url(#linearGradient1)" fill-rule="evenodd" stroke="none" d="M 0 512 L 512 512 L 512 0 L 0 0 Z"/>
        <linearGradient id="linearGradient2" x1="102.163552" y1="433.021736" x2="381.73478" y2="133.783236" gradientUnits="userSpaceOnUse">
            <stop offset="1e-05" stop-color="#3babff" stop-opacity="1"/>
            <stop offset="1" stop-color="#3babff" stop-opacity="1"/>
        </linearGradient>
        <path id="Rectangle-copy-7" fill="url(#linearGradient2)" fill-rule="evenodd" stroke="none" d="M 0 512 L 512 512 L 512 0 L 0 0 Z"/>
    </g>
</svg>
