<?xml version="1.0" encoding="UTF-8"?>
<!-- Generated by Pixelmator Pro 3.6.7 -->
<svg width="512" height="512" viewBox="0 0 512 512" xmlns="http://www.w3.org/2000/svg" xmlns:xlink="http://www.w3.org/1999/xlink">
    <g id="Group">
        <path id="Rectangle" fill="#2e4df5" stroke="none" d="M 40 15 C 26.192907 15 15 26.192907 15 40 L 15 472 C 15 485.807129 26.192907 497 40 497 L 472 497 C 485.807129 497 497 485.807129 497 472 L 497 40 C 497 26.192907 485.807129 15 472 15 L 40 15 Z M 40 40 L 472 40 L 472 472 L 40 472 L 40 40 Z"/>
        <path id="DG-" fill="#2040f4" fill-rule="evenodd" stroke="none" d="M 391.407898 361.748962 C 380.129181 369.249695 366.262146 373 349.806335 373 C 322.718964 373 300.531677 362.849121 283.243835 342.547119 C 265.2164 322.145142 256.20282 294.242798 256.20282 258.839294 C 256.20282 223.035706 265.308838 194.333313 283.521179 172.731171 C 301.73349 151.129059 325.815948 140.328125 355.769226 140.328125 C 381.747223 140.328125 402.617126 147.453735 418.379578 161.705139 C 434.142029 175.956543 443.178711 193.733032 445.489929 215.035126 L 403.472351 215.035126 C 400.236664 199.933655 392.332428 189.382751 379.75946 183.382172 C 372.733368 180.081848 364.9216 178.431702 356.323914 178.431702 C 339.868103 178.431702 326.347717 185.157288 315.76239 198.608612 C 305.177032 212.059937 299.88446 232.286652 299.88446 259.289307 C 299.88446 286.492004 305.61618 305.743591 317.079773 317.044739 C 328.543365 328.345886 341.5784 333.996338 356.185242 333.996338 C 370.51474 333.996338 382.255493 329.520935 391.407898 320.570068 C 400.560272 311.619202 406.199554 299.893188 408.325867 285.391754 L 361.038757 285.391754 L 361.038757 248.488312 L 446.183289 248.488312 L 446.183289 367.149445 L 417.894226 367.149445 L 413.595398 339.546875 C 405.367493 350.047882 397.971741 357.448517 391.407898 361.748962 Z M 154.689453 367.149445 L 66.632813 367.149445 L 66.632813 146.028656 L 154.689453 146.028656 C 167.354874 146.228699 177.893845 147.828827 186.306641 150.829102 C 200.636139 155.929626 212.238235 165.280426 221.113281 178.881744 C 228.231812 189.882843 233.085266 201.783844 235.673828 214.585083 C 238.26239 227.386383 239.556641 239.587402 239.556641 251.188538 C 239.556641 280.591461 234.102264 305.49353 223.193359 325.895569 C 208.401611 353.398315 185.567215 367.149445 154.689453 367.149445 Z M 186.445313 202.43396 C 179.881485 190.43277 166.89267 184.432281 147.478516 184.432281 L 108.095703 184.432281 L 108.095703 328.74585 L 147.478516 328.74585 C 167.632263 328.74585 181.684204 317.994934 189.634766 296.492798 C 193.979843 284.69165 196.152344 270.640472 196.152344 254.338837 C 196.152344 231.836639 192.916702 214.535156 186.445313 202.43396 Z"/>
    </g>
    <mask id="mask1" maskUnits="userSpaceOnUse" maskContentUnits="userSpaceOnUse" mask-type="alpha">
        <g id="g1">
            <path id="path1" fill="#2e4df5" stroke="none" d="M 40 15 C 26.192907 15 15 26.192907 15 40 L 15 472 C 15 485.807129 26.192907 497 40 497 L 472 497 C 485.807129 497 497 485.807129 497 472 L 497 40 C 497 26.192907 485.807129 15 472 15 L 40 15 Z M 40 40 L 472 40 L 472 472 L 40 472 L 40 40 Z"/>
            <path id="path2" fill="#2040f4" fill-rule="evenodd" stroke="none" d="M 391.407898 361.748962 C 380.129181 369.249695 366.262146 373 349.806335 373 C 322.718964 373 300.531677 362.849121 283.243835 342.547119 C 265.2164 322.145142 256.20282 294.242798 256.20282 258.839294 C 256.20282 223.035706 265.308838 194.333313 283.521179 172.731171 C 301.73349 151.129059 325.815948 140.328125 355.769226 140.328125 C 381.747223 140.328125 402.617126 147.453735 418.379578 161.705139 C 434.142029 175.956543 443.178711 193.733032 445.489929 215.035126 L 403.472351 215.035126 C 400.236664 199.933655 392.332428 189.382751 379.75946 183.382172 C 372.733368 180.081848 364.9216 178.431702 356.323914 178.431702 C 339.868103 178.431702 326.347717 185.157288 315.76239 198.608612 C 305.177032 212.059937 299.88446 232.286652 299.88446 259.289307 C 299.88446 286.492004 305.61618 305.743591 317.079773 317.044739 C 328.543365 328.345886 341.5784 333.996338 356.185242 333.996338 C 370.51474 333.996338 382.255493 329.520935 391.407898 320.570068 C 400.560272 311.619202 406.199554 299.893188 408.325867 285.391754 L 361.038757 285.391754 L 361.038757 248.488312 L 446.183289 248.488312 L 446.183289 367.149445 L 417.894226 367.149445 L 413.595398 339.546875 C 405.367493 350.047882 397.971741 357.448517 391.407898 361.748962 Z M 154.689453 367.149445 L 66.632813 367.149445 L 66.632813 146.028656 L 154.689453 146.028656 C 167.354874 146.228699 177.893845 147.828827 186.306641 150.829102 C 200.636139 155.929626 212.238235 165.280426 221.113281 178.881744 C 228.231812 189.882843 233.085266 201.783844 235.673828 214.585083 C 238.26239 227.386383 239.556641 239.587402 239.556641 251.188538 C 239.556641 280.591461 234.102264 305.49353 223.193359 325.895569 C 208.401611 353.398315 185.567215 367.149445 154.689453 367.149445 Z M 186.445313 202.43396 C 179.881485 190.43277 166.89267 184.432281 147.478516 184.432281 L 108.095703 184.432281 L 108.095703 328.74585 L 147.478516 328.74585 C 167.632263 328.74585 181.684204 317.994934 189.634766 296.492798 C 193.979843 284.69165 196.152344 270.640472 196.152344 254.338837 C 196.152344 231.836639 192.916702 214.535156 186.445313 202.43396 Z"/>
        </g>
    </mask>
    <g id="g2" mask="url(#mask1)">
        <linearGradient id="linearGradient1" x1="102.163552" y1="433.021736" x2="381.73478" y2="133.783236" gradientUnits="userSpaceOnUse">
            <stop offset="0" stop-color="#01ff96" stop-opacity="1"/>
            <stop offset="1" stop-color="#01ffdd" stop-opacity="1"/>
        </linearGradient>
        <path id="Rectangle-copy-6" fill="url(#linearGradient1)" fill-rule="evenodd" stroke="none" d="M 0 512 L 512 512 L 512 0 L 0 0 Z"/>
    </g>
</svg>
